<svg width="232" height="128" fill="none" xmlns="http://www.w3.org/2000/svg"><path fill="#F5F5F5" d="M0 0h232v128H0z"/><path fill="#fff" d="M0 0h232v128H0z"/><path d="M27.932 29.034V25.91H49.75v3.125h-9.148V55H37.08V29.034h-9.148Zm32.784 26.42c-2.102 0-3.916-.464-5.44-1.392-1.516-.937-2.685-2.244-3.509-3.92-.814-1.686-1.222-3.646-1.222-5.88 0-2.236.408-4.205 1.222-5.91.824-1.714 1.97-3.049 3.438-4.005 1.477-.966 3.2-1.45 5.17-1.45 1.136 0 2.258.19 3.367.569 1.107.379 2.116.994 3.025 1.846.91.843 1.634 1.96 2.173 3.353.54 1.392.81 3.106.81 5.142v1.42H52.932V42.33H66.34c0-1.231-.246-2.33-.739-3.296a5.566 5.566 0 0 0-2.074-2.287c-.89-.559-1.94-.838-3.153-.838-1.335 0-2.49.331-3.466.994a6.54 6.54 0 0 0-2.23 2.557 7.51 7.51 0 0 0-.781 3.38v1.933c0 1.647.284 3.044.852 4.19.578 1.136 1.378 2.003 2.4 2.6 1.023.587 2.212.88 3.566.88.88 0 1.676-.123 2.386-.37a5.109 5.109 0 0 0 1.861-1.136c.52-.51.923-1.145 1.208-1.903l3.238.91a7.18 7.18 0 0 1-1.719 2.897c-.805.824-1.799 1.468-2.983 1.932-1.183.454-2.514.681-3.991.681Zm22.997 0c-2.045 0-3.807-.482-5.284-1.448-1.477-.966-2.614-2.297-3.41-3.992-.795-1.695-1.192-3.631-1.192-5.81 0-2.215.407-4.17 1.221-5.866.824-1.705 1.97-3.035 3.438-3.991 1.477-.966 3.2-1.45 5.17-1.45 1.534 0 2.917.285 4.148.853 1.231.568 2.24 1.364 3.025 2.386.787 1.023 1.274 2.216 1.464 3.58H88.94c-.255-.994-.823-1.875-1.704-2.642-.871-.777-2.046-1.165-3.523-1.165-1.307 0-2.453.341-3.437 1.023-.976.672-1.738 1.624-2.287 2.855-.54 1.221-.81 2.656-.81 4.304 0 1.685.265 3.153.795 4.403.54 1.25 1.298 2.221 2.273 2.912.985.691 2.14 1.037 3.466 1.037.871 0 1.662-.151 2.372-.454a4.892 4.892 0 0 0 1.804-1.307c.493-.568.843-1.25 1.051-2.046h3.353a7.766 7.766 0 0 1-1.407 3.48c-.738 1.023-1.718 1.838-2.94 2.444-1.212.596-2.623.895-4.233.895Zm16.832-13.579V55h-3.352V25.91h3.352v10.68h.285a6.163 6.163 0 0 1 2.301-2.684c1.032-.672 2.405-1.008 4.119-1.008 1.487 0 2.789.298 3.906.895 1.118.587 1.984 1.491 2.6 2.713.625 1.212.937 2.755.937 4.63V55h-3.352V41.364c0-1.733-.45-3.073-1.35-4.02-.89-.957-2.125-1.435-3.707-1.435-1.098 0-2.083.232-2.954.696-.862.464-1.544 1.141-2.046 2.031-.492.89-.739 1.97-.739 3.239Zm17.309-12.84v-3.126h21.818v3.125h-9.148V55h-3.523V29.034h-9.147Zm32.5 26.42c-1.97 0-3.698-.47-5.185-1.407-1.477-.937-2.633-2.249-3.466-3.934-.824-1.686-1.236-3.656-1.236-5.91 0-2.272.412-4.256 1.236-5.951.833-1.695 1.989-3.011 3.466-3.949 1.487-.938 3.215-1.406 5.185-1.406 1.969 0 3.693.468 5.17 1.406 1.487.938 2.642 2.254 3.466 3.949.833 1.695 1.25 3.679 1.25 5.952 0 2.253-.417 4.223-1.25 5.909-.824 1.685-1.979 2.997-3.466 3.934-1.477.938-3.201 1.407-5.17 1.407Zm0-3.012c1.496 0 2.727-.383 3.693-1.15.966-.767 1.681-1.776 2.145-3.026.464-1.25.696-2.604.696-4.063 0-1.458-.232-2.817-.696-4.076-.464-1.26-1.179-2.278-2.145-3.054-.966-.777-2.197-1.165-3.693-1.165-1.497 0-2.728.388-3.693 1.165-.966.776-1.681 1.794-2.145 3.054-.464 1.26-.696 2.618-.696 4.077 0 1.458.232 2.812.696 4.062.464 1.25 1.179 2.259 2.145 3.026.965.767 2.196 1.15 3.693 1.15Zm15.003 10.739v-30h3.239v3.466h.398c.246-.38.587-.862 1.022-1.45.445-.596 1.08-1.126 1.904-1.59.833-.473 1.96-.71 3.38-.71 1.838 0 3.457.459 4.858 1.378 1.402.918 2.496 2.22 3.282 3.906.786 1.685 1.179 3.674 1.179 5.966 0 2.31-.393 4.313-1.179 6.008-.786 1.686-1.875 2.993-3.267 3.92-1.392.92-2.998 1.379-4.816 1.379-1.401 0-2.523-.233-3.366-.697-.843-.473-1.492-1.008-1.946-1.605a21.256 21.256 0 0 1-1.051-1.505h-.284v11.534h-3.353Zm3.296-19.091c0 1.648.241 3.101.724 4.36.483 1.25 1.189 2.23 2.117 2.941.928.7 2.064 1.051 3.409 1.051 1.401 0 2.571-.37 3.508-1.108.947-.748 1.657-1.752 2.131-3.011.483-1.27.724-2.68.724-4.233 0-1.534-.236-2.917-.71-4.148-.464-1.24-1.169-2.22-2.116-2.94-.938-.73-2.117-1.094-3.537-1.094-1.364 0-2.51.346-3.438 1.037-.928.682-1.629 1.638-2.102 2.87-.474 1.22-.71 2.646-.71 4.275Z" fill="url('#paint0_linear_0_1')"/><path d="m116.568 101-9.545-34.91h4.295l7.296 28.433h.341l7.431-28.432h4.773l7.432 28.432h.341l7.295-28.432h4.296L140.977 101h-4.363l-7.705-27.818h-.273L120.932 101h-4.364Zm47.216.545c-2.523 0-4.699-.556-6.528-1.67-1.818-1.125-3.222-2.693-4.211-4.704-.977-2.023-1.465-4.376-1.465-7.057 0-2.682.488-5.046 1.465-7.091.989-2.057 2.364-3.66 4.125-4.807 1.773-1.16 3.841-1.739 6.205-1.739 1.364 0 2.71.227 4.04.682 1.329.455 2.54 1.193 3.63 2.216 1.091 1.011 1.961 2.352 2.608 4.023.648 1.67.972 3.727.972 6.17v1.705h-20.182v-3.477h16.091c0-1.478-.295-2.796-.886-3.955a6.68 6.68 0 0 0-2.489-2.744c-1.068-.67-2.329-1.006-3.784-1.006-1.602 0-2.989.398-4.159 1.193a7.849 7.849 0 0 0-2.676 3.068 9.014 9.014 0 0 0-.938 4.057v2.318c0 1.977.341 3.654 1.023 5.029.693 1.363 1.653 2.403 2.881 3.119 1.227.704 2.653 1.057 4.278 1.057 1.057 0 2.011-.148 2.864-.443a6.134 6.134 0 0 0 2.233-1.364c.625-.614 1.108-1.375 1.449-2.284l3.886 1.09a8.616 8.616 0 0 1-2.063 3.478c-.965.989-2.159 1.761-3.579 2.318-1.421.546-3.017.818-4.79.818ZM181.29 101V66.09h4.022v12.887h.341c.296-.454.705-1.034 1.228-1.738.534-.716 1.295-1.353 2.284-1.91 1-.568 2.352-.852 4.057-.852 2.204 0 4.147.551 5.829 1.654 1.682 1.102 2.994 2.665 3.938 4.687.943 2.023 1.414 4.41 1.414 7.16 0 2.772-.471 5.175-1.414 7.21-.944 2.022-2.25 3.59-3.921 4.704-1.67 1.102-3.596 1.653-5.778 1.653-1.682 0-3.029-.278-4.04-.835-1.011-.568-1.79-1.21-2.335-1.926a25.867 25.867 0 0 1-1.262-1.807h-.477V101h-3.886Zm3.954-13.09c0 1.976.29 3.72.87 5.232.579 1.5 1.426 2.676 2.539 3.529 1.114.84 2.478 1.26 4.091 1.26 1.682 0 3.086-.442 4.211-1.329 1.136-.898 1.988-2.102 2.556-3.613.58-1.523.87-3.216.87-5.08 0-1.84-.284-3.5-.853-4.977-.556-1.489-1.403-2.665-2.539-3.529-1.125-.875-2.54-1.312-4.245-1.312-1.636 0-3.011.415-4.125 1.244-1.113.818-1.954 1.966-2.522 3.443-.569 1.466-.853 3.176-.853 5.131Z" fill="url('#paint1_linear_0_1')"/><path d="M33.005 91.773V89.5l18.296-9.318v3.636L37.267 90.58l.113-.227v.569l-.113-.228L51.3 97.454v3.637l-18.296-9.318Z" fill="url('#paint2_linear_0_1')"/><path d="M101.81 83.773 83.515 93.09v-3.636l14.034-6.762-.114.228v-.569l.114.227-14.034-6.76v-3.637L101.81 81.5v2.273Z" fill="url('#paint3_linear_0_1')"/><path d="m62.467 82.627.135 10.918 5.095-.064.104 8.431M71.917 84.098l.116 9.385 4.334-.054.09 7.248M83.152 82.366l-25.362.32" stroke="#BBD6B8"/><path d="m83.133 83.924-15.361.193.066 5.368-11.863.15" stroke="#BBD6B8"/><path d="m64.53 89.56-.13-10.548 4.854-.061-.1-8.146" stroke="#BBD6B8"/><ellipse cx="1.438" cy="1.253" rx="1.438" ry="1.253" transform="rotate(-.72 5448.883 -5340.685) skewX(-.014)" stroke="#BBD6B8" stroke-width="3"/><ellipse cx="1.438" cy="1.253" rx="1.438" ry="1.253" transform="rotate(-.72 6494.745 -4339.587) skewX(-.014)" stroke="#BBD6B8" stroke-width="3"/><ellipse cx="1.438" cy="1.253" rx="1.438" ry="1.253" transform="rotate(-.72 7043.035 -4154.562) skewX(-.014)" stroke="#BBD6B8" stroke-width="3"/><ellipse cx="1.438" cy="1.253" rx="1.438" ry="1.253" transform="rotate(-.72 8130.604 -5212.865) skewX(-.014)" stroke="#BBD6B8" stroke-width="3"/><ellipse cx="1.438" cy="1.253" rx="1.438" ry="1.253" transform="rotate(-.72 8016.845 -5902.844) skewX(-.014)" stroke="#BBD6B8" stroke-width="3"/><defs><linearGradient id="paint0_linear_0_1" x1="106.5" y1="16" x2="106.5" y2="63" gradientUnits="userSpaceOnUse"><stop offset=".722" stop-color="#0E2E1C"/><stop offset="1" stop-color="#0E2E1C" stop-opacity="0"/></linearGradient><linearGradient id="paint1_linear_0_1" x1="169" y1="55" x2="169" y2="112" gradientUnits="userSpaceOnUse"><stop offset=".545" stop-color="#417860"/><stop offset="1" stop-color="#417860" stop-opacity="0"/></linearGradient><linearGradient id="paint2_linear_0_1" x1="42.341" y1="63" x2="42.341" y2="105.857" gradientUnits="userSpaceOnUse"><stop offset=".76" stop-color="#7EA27A"/><stop offset="1" stop-color="#22A699" stop-opacity="0"/></linearGradient><linearGradient id="paint3_linear_0_1" x1="92.851" y1="55" x2="92.851" y2="97.857" gradientUnits="userSpaceOnUse"><stop offset=".76" stop-color="#7EA27A"/><stop offset="1" stop-color="#22A699" stop-opacity="0"/></linearGradient></defs></svg>