<svg width="232" height="128" viewBox="0 0 232 128" fill="none" xmlns="http://www.w3.org/2000/svg">
<rect width="232" height="128" fill="#F5F5F5"/>
<rect width="232" height="128" fill="white"/>
<path d="M27.9318 29.0341V25.9091H49.75V29.0341H40.6023V55H37.0795V29.0341H27.9318ZM60.7159 55.4545C58.6136 55.4545 56.8002 54.9905 55.2756 54.0625C53.7604 53.125 52.5909 51.8182 51.767 50.142C50.9527 48.4564 50.5455 46.4962 50.5455 44.2614C50.5455 42.0265 50.9527 40.0568 51.767 38.3523C52.5909 36.6383 53.7367 35.303 55.2045 34.3466C56.6818 33.3807 58.4053 32.8977 60.375 32.8977C61.5114 32.8977 62.6335 33.0871 63.7415 33.4659C64.8494 33.8447 65.858 34.4602 66.767 35.3125C67.6761 36.1553 68.4006 37.2727 68.9403 38.6648C69.4801 40.0568 69.75 41.7708 69.75 43.8068V45.2273H52.9318V42.3295H66.3409C66.3409 41.0985 66.0947 40 65.6023 39.0341C65.1193 38.0682 64.428 37.3059 63.5284 36.7472C62.6383 36.1884 61.5871 35.9091 60.375 35.9091C59.0398 35.9091 57.8845 36.2405 56.9091 36.9034C55.9432 37.5568 55.1998 38.4091 54.679 39.4602C54.1581 40.5114 53.8977 41.6383 53.8977 42.8409V44.7727C53.8977 46.4205 54.1818 47.8172 54.75 48.9631C55.3277 50.0994 56.1278 50.9659 57.1506 51.5625C58.1733 52.1496 59.3617 52.4432 60.7159 52.4432C61.5966 52.4432 62.392 52.3201 63.1023 52.0739C63.822 51.8182 64.4422 51.4394 64.9631 50.9375C65.4839 50.4261 65.8864 49.7917 66.1705 49.0341L69.4091 49.9432C69.0682 51.0417 68.4953 52.0076 67.6903 52.8409C66.8854 53.6648 65.8911 54.3087 64.7074 54.7727C63.5237 55.2273 62.1932 55.4545 60.7159 55.4545ZM83.7131 55.4545C81.6676 55.4545 79.9063 54.9716 78.429 54.0057C76.9517 53.0398 75.8153 51.7093 75.0199 50.0142C74.2244 48.3191 73.8267 46.3826 73.8267 44.2045C73.8267 41.9886 74.2339 40.0331 75.0483 38.3381C75.8722 36.6335 77.018 35.303 78.4858 34.3466C79.9631 33.3807 81.6866 32.8977 83.6562 32.8977C85.1903 32.8977 86.5729 33.1818 87.804 33.75C89.035 34.3182 90.0436 35.1136 90.8295 36.1364C91.6155 37.1591 92.1032 38.3523 92.2926 39.7159H88.9403C88.6847 38.7216 88.1165 37.8409 87.2358 37.0739C86.3646 36.2973 85.1903 35.9091 83.7131 35.9091C82.4063 35.9091 81.2604 36.25 80.2756 36.9318C79.3002 37.6042 78.5379 38.5559 77.9886 39.7869C77.4489 41.0085 77.179 42.4432 77.179 44.0909C77.179 45.7765 77.4441 47.2443 77.9744 48.4943C78.5142 49.7443 79.2718 50.715 80.2472 51.4062C81.232 52.0975 82.3873 52.4432 83.7131 52.4432C84.5843 52.4432 85.375 52.2917 86.0852 51.9886C86.7955 51.6856 87.3968 51.25 87.8892 50.6818C88.3816 50.1136 88.732 49.4318 88.9403 48.6364H92.2926C92.1032 49.9242 91.6345 51.0843 90.8864 52.1165C90.1477 53.1392 89.1676 53.9536 87.946 54.5597C86.7339 55.1562 85.3229 55.4545 83.7131 55.4545ZM100.545 41.875V55H97.1932V25.9091H100.545V36.5909H100.83C101.341 35.464 102.108 34.5691 103.131 33.9062C104.163 33.2339 105.536 32.8977 107.25 32.8977C108.737 32.8977 110.039 33.196 111.156 33.7926C112.274 34.3797 113.14 35.2841 113.756 36.5057C114.381 37.7178 114.693 39.2614 114.693 41.1364V55H111.341V41.3636C111.341 39.6307 110.891 38.2907 109.991 37.3438C109.101 36.3873 107.866 35.9091 106.284 35.9091C105.186 35.9091 104.201 36.1411 103.33 36.6051C102.468 37.0691 101.786 37.7462 101.284 38.6364C100.792 39.5265 100.545 40.6061 100.545 41.875ZM117.854 29.0341V25.9091H139.672V29.0341H130.524V55H127.001V29.0341H117.854ZM150.354 55.4545C148.384 55.4545 146.656 54.9858 145.169 54.0483C143.692 53.1108 142.536 51.7992 141.703 50.1136C140.879 48.428 140.467 46.4583 140.467 44.2045C140.467 41.9318 140.879 39.9479 141.703 38.2528C142.536 36.5578 143.692 35.2415 145.169 34.304C146.656 33.3665 148.384 32.8977 150.354 32.8977C152.323 32.8977 154.047 33.3665 155.524 34.304C157.011 35.2415 158.166 36.5578 158.99 38.2528C159.823 39.9479 160.24 41.9318 160.24 44.2045C160.24 46.4583 159.823 48.428 158.99 50.1136C158.166 51.7992 157.011 53.1108 155.524 54.0483C154.047 54.9858 152.323 55.4545 150.354 55.4545ZM150.354 52.4432C151.85 52.4432 153.081 52.0597 154.047 51.2926C155.013 50.5256 155.728 49.517 156.192 48.267C156.656 47.017 156.888 45.6629 156.888 44.2045C156.888 42.7462 156.656 41.3873 156.192 40.1278C155.728 38.8684 155.013 37.8504 154.047 37.0739C153.081 36.2973 151.85 35.9091 150.354 35.9091C148.857 35.9091 147.626 36.2973 146.661 37.0739C145.695 37.8504 144.98 38.8684 144.516 40.1278C144.052 41.3873 143.82 42.7462 143.82 44.2045C143.82 45.6629 144.052 47.017 144.516 48.267C144.98 49.517 145.695 50.5256 146.661 51.2926C147.626 52.0597 148.857 52.4432 150.354 52.4432ZM165.357 63.1818V33.1818H168.596V36.6477H168.994C169.24 36.2689 169.581 35.786 170.016 35.1989C170.461 34.6023 171.096 34.072 171.92 33.608C172.753 33.1345 173.88 32.8977 175.3 32.8977C177.138 32.8977 178.757 33.357 180.158 34.2756C181.56 35.1941 182.654 36.4962 183.44 38.1818C184.226 39.8674 184.619 41.8561 184.619 44.1477C184.619 46.4583 184.226 48.4612 183.44 50.1562C182.654 51.8419 181.565 53.1487 180.173 54.0767C178.781 54.9953 177.175 55.4545 175.357 55.4545C173.956 55.4545 172.834 55.2225 171.991 54.7585C171.148 54.285 170.499 53.75 170.045 53.1534C169.59 52.5473 169.24 52.0455 168.994 51.6477H168.71V63.1818H165.357ZM168.653 44.0909C168.653 45.7386 168.894 47.1922 169.377 48.4517C169.86 49.7017 170.566 50.6818 171.494 51.392C172.422 52.0928 173.558 52.4432 174.903 52.4432C176.304 52.4432 177.474 52.0739 178.411 51.3352C179.358 50.5871 180.068 49.5833 180.542 48.3239C181.025 47.0549 181.266 45.6439 181.266 44.0909C181.266 42.5568 181.03 41.1742 180.556 39.9432C180.092 38.7027 179.387 37.7225 178.44 37.0028C177.502 36.2737 176.323 35.9091 174.903 35.9091C173.539 35.9091 172.393 36.2547 171.465 36.946C170.537 37.6278 169.836 38.5843 169.363 39.8153C168.889 41.0369 168.653 42.4621 168.653 44.0909Z" fill="url(#paint0_linear_0_1)"/>
<path d="M116.568 101L107.023 66.0909H111.318L118.614 94.5227H118.955L126.386 66.0909H131.159L138.591 94.5227H138.932L146.227 66.0909H150.523L140.977 101H136.614L128.909 73.1818H128.636L120.932 101H116.568ZM163.784 101.545C161.261 101.545 159.085 100.989 157.256 99.875C155.438 98.75 154.034 97.1818 153.045 95.1705C152.068 93.1477 151.58 90.7955 151.58 88.1136C151.58 85.4318 152.068 83.0682 153.045 81.0227C154.034 78.9659 155.409 77.3636 157.17 76.2159C158.943 75.0568 161.011 74.4773 163.375 74.4773C164.739 74.4773 166.085 74.7045 167.415 75.1591C168.744 75.6136 169.955 76.3523 171.045 77.375C172.136 78.3864 173.006 79.7273 173.653 81.3977C174.301 83.0682 174.625 85.125 174.625 87.5682V89.2727H154.443V85.7955H170.534C170.534 84.3182 170.239 83 169.648 81.8409C169.068 80.6818 168.239 79.767 167.159 79.0966C166.091 78.4261 164.83 78.0909 163.375 78.0909C161.773 78.0909 160.386 78.4886 159.216 79.2841C158.057 80.0682 157.165 81.0909 156.54 82.3523C155.915 83.6136 155.602 84.9659 155.602 86.4091V88.7273C155.602 90.7045 155.943 92.3807 156.625 93.7557C157.318 95.1193 158.278 96.1591 159.506 96.875C160.733 97.5795 162.159 97.9318 163.784 97.9318C164.841 97.9318 165.795 97.7841 166.648 97.4886C167.511 97.1818 168.256 96.7273 168.881 96.125C169.506 95.5114 169.989 94.75 170.33 93.8409L174.216 94.9318C173.807 96.25 173.119 97.4091 172.153 98.4091C171.188 99.3977 169.994 100.17 168.574 100.727C167.153 101.273 165.557 101.545 163.784 101.545ZM181.29 101V66.0909H185.312V78.9773H185.653C185.949 78.5227 186.358 77.9432 186.881 77.2386C187.415 76.5227 188.176 75.8864 189.165 75.3295C190.165 74.7614 191.517 74.4773 193.222 74.4773C195.426 74.4773 197.369 75.0284 199.051 76.1307C200.733 77.233 202.045 78.7955 202.989 80.8182C203.932 82.8409 204.403 85.2273 204.403 87.9773C204.403 90.75 203.932 93.1534 202.989 95.1875C202.045 97.2102 200.739 98.7784 199.068 99.892C197.398 100.994 195.472 101.545 193.29 101.545C191.608 101.545 190.261 101.267 189.25 100.71C188.239 100.142 187.46 99.5 186.915 98.7841C186.369 98.0568 185.949 97.4545 185.653 96.9773H185.176V101H181.29ZM185.244 87.9091C185.244 89.8864 185.534 91.6307 186.114 93.142C186.693 94.642 187.54 95.8182 188.653 96.6705C189.767 97.5114 191.131 97.9318 192.744 97.9318C194.426 97.9318 195.83 97.4886 196.955 96.6023C198.091 95.7045 198.943 94.5 199.511 92.9886C200.091 91.4659 200.381 89.7727 200.381 87.9091C200.381 86.0682 200.097 84.4091 199.528 82.9318C198.972 81.4432 198.125 80.267 196.989 79.4034C195.864 78.5284 194.449 78.0909 192.744 78.0909C191.108 78.0909 189.733 78.5057 188.619 79.3352C187.506 80.1534 186.665 81.3011 186.097 82.7784C185.528 84.2443 185.244 85.9545 185.244 87.9091Z" fill="url(#paint1_linear_0_1)"/>
<path d="M33.0053 91.7727V89.5L51.3007 80.1818V83.8182L37.2666 90.5795L37.3803 90.3523V90.9205L37.2666 90.6932L51.3007 97.4545V101.091L33.0053 91.7727Z" fill="url(#paint2_linear_0_1)"/>
<path d="M101.81 83.7727L83.5149 93.0909V89.4545L97.549 82.6932L97.4353 82.9205V82.3523L97.549 82.5795L83.5149 75.8182V72.1818L101.81 81.5V83.7727Z" fill="url(#paint3_linear_0_1)"/>
<path d="M62.4672 82.6266L62.602 93.5447L67.6972 93.4805L67.8014 101.912" stroke="#BBD6B8"/>
<path d="M71.9167 84.0982L72.0326 93.4833L76.3674 93.4287L76.4569 100.677" stroke="#BBD6B8"/>
<path d="M83.1521 82.3661L57.7902 82.6855" stroke="#BBD6B8"/>
<path d="M83.1334 83.9239L67.7717 84.1173L67.838 89.4849L55.9746 89.6344" stroke="#BBD6B8"/>
<path d="M64.5303 89.5595L64.4 79.012L69.2538 78.9508L69.1532 70.8052" stroke="#BBD6B8"/>
<ellipse cx="1.43825" cy="1.25327" rx="1.43825" ry="1.25327" transform="matrix(0.999921 -0.0125924 0.0123515 0.999924 67.6825 68.1926)" stroke="#BBD6B8" stroke-width="3"/>
<ellipse cx="1.43825" cy="1.25327" rx="1.43825" ry="1.25327" transform="matrix(0.999921 -0.0125924 0.0123515 0.999924 55.1589 81.4416)" stroke="#BBD6B8" stroke-width="3"/>
<ellipse cx="1.43825" cy="1.25327" rx="1.43825" ry="1.25327" transform="matrix(0.999921 -0.0125924 0.0123515 0.999924 52.8723 88.3605)" stroke="#BBD6B8" stroke-width="3"/>
<ellipse cx="1.43825" cy="1.25327" rx="1.43825" ry="1.25327" transform="matrix(0.999921 -0.0125924 0.0123515 0.999924 66.2848 101.972)" stroke="#BBD6B8" stroke-width="3"/>
<ellipse cx="1.43825" cy="1.25327" rx="1.43825" ry="1.25327" transform="matrix(0.999921 -0.0125924 0.0123515 0.999924 74.9643 100.485)" stroke="#BBD6B8" stroke-width="3"/>
<defs>
<linearGradient id="paint0_linear_0_1" x1="106.5" y1="16" x2="106.5" y2="63" gradientUnits="userSpaceOnUse">
<stop offset="0.722194" stop-color="#0E2E1C"/>
<stop offset="1" stop-color="#0E2E1C" stop-opacity="0"/>
</linearGradient>
<linearGradient id="paint1_linear_0_1" x1="169" y1="55" x2="169" y2="112" gradientUnits="userSpaceOnUse">
<stop offset="0.545275" stop-color="#417860"/>
<stop offset="1" stop-color="#417860" stop-opacity="0"/>
</linearGradient>
<linearGradient id="paint2_linear_0_1" x1="42.3414" y1="63" x2="42.3414" y2="105.857" gradientUnits="userSpaceOnUse">
<stop offset="0.760269" stop-color="#7EA27A"/>
<stop offset="1" stop-color="#22A699" stop-opacity="0"/>
</linearGradient>
<linearGradient id="paint3_linear_0_1" x1="92.851" y1="55" x2="92.851" y2="97.8571" gradientUnits="userSpaceOnUse">
<stop offset="0.760269" stop-color="#7EA27A"/>
<stop offset="1" stop-color="#22A699" stop-opacity="0"/>
</linearGradient>
</defs>
</svg>
